<svg width="270" height="270" viewBox="0 0 270 270" fill="none" xmlns="http://www.w3.org/2000/svg">
<circle cx="135" cy="135" r="135" fill="white"/>
<path d="M73.0931 118.052C69.3271 114.118 64.9189 111.097 57.4861 111.097C46.0071 111.097 35.9995 119.886 35.9995 134.163V134.344C35.9995 148.528 45.8261 157.316 58.035 157.316C65.2867 157.316 69.8818 153.929 73.3675 149.901V151.822C73.3675 159.691 69.0527 163.998 60.3296 163.998C53.6267 163.998 48.3018 162.258 42.9768 159.33L37.3775 170.86C44.5416 174.521 52.6166 176.535 62.2622 176.535C72.6377 176.535 79.615 174.061 84.1167 169.58C88.5249 165.185 90.5451 158.87 90.5451 149.808V112.197H73.0931V118.052ZM73.3675 134.344C73.3675 139.838 69.1461 143.953 63.2665 143.953C57.2993 143.953 53.072 139.925 53.072 134.437V134.256C53.072 128.762 57.2934 124.647 63.2665 124.647C69.1403 124.647 73.3675 128.675 73.3675 134.163V134.344Z" fill="#F08D21"/>
<path d="M126.523 136.054C126.523 140.879 123.733 143.499 120.037 143.499C116.259 143.499 113.719 140.879 113.719 136.054V112.081H98.1238V141.042C98.1238 151.106 103.787 157.322 113.223 157.322C119.54 157.322 123.645 153.969 126.518 150.285V156.338H142.113V112.081H126.518V136.054H126.523Z" fill="#F08D21"/>
<path d="M166.741 96.616H150.492V108.07H166.741V96.616Z" fill="#F08D21"/>
<path d="M166.414 112.081H150.819V156.344H166.414V112.081Z" fill="#F08D21"/>
<path d="M216.312 132.999V130.898C216.312 128.186 216.049 125.788 215.471 123.675C214.922 123.803 214.321 123.814 213.679 123.692C210.24 123.058 206.935 121.958 203.694 120.666C202.906 120.357 202.106 120.066 201.324 119.729C198.907 118.693 196.583 117.488 194.358 116.097C192.864 115.16 192.175 113.507 192.665 112.011C192.729 111.825 192.788 111.633 192.852 111.446C186.161 111.65 181.274 112.971 176.673 114.857L179.872 125.822C183.813 124.268 187.422 123.366 192.104 123.366C198.095 123.366 200.968 125.985 200.968 130.566V131.305C198.422 130.403 194.399 129.588 190.3 129.588C179.878 129.588 172.901 134.332 172.901 143.499V143.662C172.901 152.497 179.388 157.328 187.836 157.328C193.663 157.328 197.85 155.116 200.886 151.764V156.344H216.318V138.063L216.312 132.999ZM201.131 140.309C201.131 144.727 197.932 147.59 193.418 147.59C190.219 147.59 187.918 145.792 187.918 142.765V142.597C187.918 139.326 190.546 137.114 195.059 137.114C197.359 137.114 199.572 137.603 201.131 138.26V140.309Z" fill="#F08D21"/>
<path d="M216.183 137.085C215.874 136.91 215.629 136.648 215.459 136.34C215.442 136.974 215.769 137.649 216.318 138.057V136.642C216.265 136.794 216.224 136.939 216.183 137.085Z" fill="#F08D21"/>
<path d="M225.327 121.643C225.309 121.527 225.28 121.411 225.245 121.294C225.227 121.405 225.251 121.515 225.327 121.643Z" fill="#28006A"/>
<path d="M217.112 137.667C217.106 137.69 217.094 137.714 217.088 137.737C217.088 137.737 217.088 137.737 217.094 137.737C217.1 137.714 217.106 137.69 217.112 137.667Z" fill="#28006A"/>
<path d="M233.536 111.149C233.378 110.94 233.174 110.748 232.976 110.573C227.201 105.556 221.421 100.539 215.652 95.516C214.724 94.707 213.679 94.2821 212.447 94.2414C204.716 93.9853 196.986 93.7233 189.255 93.4673C189.062 93.4614 188.864 93.4673 188.665 93.4731C188.333 93.4905 188.07 93.6011 187.889 93.8398C187.83 93.9212 187.778 94.0144 187.737 94.1191C187.574 94.5498 187.679 94.9165 188.011 95.2133C188.747 95.871 189.494 96.5287 190.242 97.1748C195.456 101.703 200.67 106.231 205.878 110.765C206.824 111.586 207.898 112.005 209.154 112.04C214.624 112.209 220.09 112.395 225.56 112.575C225.695 112.581 226.886 112.628 227.213 112.634C227.213 112.634 227.738 112.657 227.919 112.663C229.361 112.721 230.804 112.773 232.252 112.814C232.538 112.82 232.847 112.797 233.116 112.698C233.524 112.546 233.764 112.279 233.811 111.964C233.834 111.714 233.752 111.429 233.536 111.149Z" fill="#28006A"/>
<path d="M219.739 131.038C219.757 130.997 219.751 130.939 219.739 130.886C219.751 130.939 219.757 130.997 219.739 131.038ZM219.71 133.075C219.728 133.028 219.745 132.976 219.763 132.929C219.745 132.976 219.728 133.028 219.71 133.075ZM219.885 132.795C219.955 132.755 220.031 132.72 220.107 132.679C220.031 132.72 219.949 132.755 219.885 132.795Z" fill="#28006A"/>
<path d="M217.678 120.642C218.507 118.78 219.365 116.929 220.212 115.072C220.23 115.032 220.247 114.985 220.265 114.944C220.306 114.851 220.341 114.758 220.376 114.665C220.533 114.234 220.276 113.809 219.833 113.862C217.842 114.095 215.88 113.693 213.906 113.6C212.341 113.524 210.783 113.367 209.218 113.262C207.612 113.158 206.205 112.593 204.95 111.586C202.264 109.427 199.566 107.279 196.875 105.125C196.285 104.654 195.923 104.753 195.683 105.469C195.672 105.504 195.66 105.539 195.648 105.574C194.971 107.564 194.294 109.561 193.634 111.557C193.634 111.563 193.628 111.574 193.628 111.58C193.132 113.076 193.763 114.712 195.181 115.614C197.289 116.958 199.502 118.116 201.797 119.106C202.538 119.426 203.297 119.7 204.05 119.996C207.139 121.224 210.286 122.266 213.573 122.837C214.099 122.93 214.601 122.93 215.068 122.837C216.218 122.61 217.141 121.853 217.678 120.642Z" fill="#28006A"/>
<path d="M221.555 136.27L222.74 123.925L222.962 123.355C223.704 123.407 224.428 122.982 224.714 122.255C225 121.527 224.755 120.724 224.171 120.264L227.592 111.528L226.635 111.155L223.213 119.892C222.472 119.839 221.748 120.264 221.462 120.992C221.175 121.719 221.421 122.522 222.005 122.982L221.899 123.244L214.227 133.342C213.877 133.802 214.064 134.466 214.607 134.675L214.671 134.698C215.039 134.844 215.459 134.658 215.605 134.291L217.205 130.205C217.281 130.019 217.485 129.903 217.678 129.967C217.877 130.036 217.982 130.258 217.906 130.45L216.16 134.908C216.09 135.083 216.177 135.28 216.353 135.345L216.388 135.356C216.551 135.42 216.738 135.339 216.802 135.176L218.174 131.672C218.25 131.486 218.455 131.369 218.647 131.433C218.846 131.503 218.951 131.724 218.875 131.916L217.497 135.443C217.433 135.606 217.515 135.793 217.678 135.857H217.684C217.877 135.932 218.093 135.839 218.163 135.647L219.144 133.144C219.219 132.958 219.424 132.842 219.617 132.906C219.815 132.976 219.92 133.197 219.844 133.389L218.84 135.95C218.776 136.119 218.857 136.311 219.027 136.381C219.214 136.45 219.424 136.363 219.494 136.177L220.113 134.594C220.189 134.402 220.411 134.303 220.609 134.39C220.796 134.471 220.866 134.698 220.796 134.885L220.218 136.369C220.13 136.59 220.235 136.846 220.457 136.939C220.948 137.149 221.508 136.811 221.555 136.27Z" fill="#28006A"/>
<path d="M99.9573 165.308H98.5385V163.637H102.246V169.027C102.246 170.104 102.532 170.843 103.682 170.843C105.265 170.843 106.216 169.26 106.216 167.636V165.313H104.815V163.643H108.505V170.581C108.505 170.843 108.634 170.971 108.902 170.971H109.784V172.624H107.518C106.707 172.624 106.333 172.251 106.333 171.617V171.285C106.333 171.163 106.351 171.058 106.351 170.988V170.866H106.304C106.199 171.163 105.241 172.839 102.958 172.839C101.143 172.839 99.9573 171.873 99.9573 169.423V165.308Z" fill="#28006A"/>
<path d="M111.144 170.947H112.475V165.697C112.475 165.435 112.347 165.307 112.078 165.307H111.051V163.637H113.462C114.274 163.637 114.647 164.01 114.647 164.644V165.051C114.647 165.139 114.647 165.243 114.63 165.313C114.612 165.366 114.612 165.401 114.612 165.435H114.647C114.735 165.156 115.745 163.427 118.028 163.427C119.99 163.427 121.105 164.452 121.105 166.844V170.947H122.436V172.618H118.84V167.298C118.84 166.186 118.536 165.465 117.38 165.465C115.728 165.465 114.753 167.013 114.753 168.584V170.947H116.066V172.618H111.138V170.947H111.144Z" fill="#28006A"/>
<path d="M123.68 170.947H125.011V165.313H123.592V163.643H127.3V170.953H128.614V172.624H123.686V170.947H123.68ZM124.994 160.116H127.294V162.106H124.994V160.116Z" fill="#28006A"/>
<path d="M129.186 163.637H133.594V165.308H132.567L134.149 169.749C134.237 169.976 134.277 170.226 134.33 170.418L134.383 170.732H134.435L134.488 170.418C134.54 170.226 134.575 169.976 134.651 169.749L136.251 165.308H135.206V163.637H139.614V165.308H138.516L135.708 172.618H133.081L130.29 165.308H129.174V163.637H129.186Z" fill="#28006A"/>
<path d="M145.085 163.422C147.73 163.422 149.166 165.308 149.166 167.682C149.166 167.805 149.166 167.997 149.149 168.16L149.114 168.439H142.767C142.913 170.075 144.133 170.942 145.517 170.942C146.288 170.942 146.918 170.732 147.403 170.464C147.689 170.325 147.94 170.168 148.174 169.987L149.055 171.57C148.787 171.797 148.442 171.995 148.069 172.187C147.42 172.519 146.504 172.822 145.354 172.822C142.312 172.822 140.426 170.657 140.426 168.119C140.426 165.36 142.335 163.422 145.085 163.422ZM146.813 167.124C146.761 165.872 146.019 165.151 145.032 165.151C143.865 165.151 143.036 165.925 142.82 167.124H146.813Z" fill="#28006A"/>
<path d="M150.661 170.947H151.992V165.697C151.992 165.435 151.864 165.307 151.595 165.307H150.568V163.637H152.961C153.773 163.637 154.182 164.009 154.182 164.731V165.261C154.182 165.418 154.182 165.54 154.164 165.668C154.147 165.721 154.147 165.773 154.147 165.825H154.182C154.614 164.539 155.676 163.521 157.095 163.521C157.224 163.521 157.311 163.521 157.381 163.538C157.434 163.555 157.469 163.555 157.51 163.555V165.756C157.457 165.756 157.405 165.756 157.346 165.738C157.218 165.721 157.113 165.721 156.949 165.721C155.098 165.721 154.269 167.304 154.269 168.997V170.953H155.583V172.623H150.655V170.947H150.661Z" fill="#28006A"/>
<path d="M158.467 169.626H160.412V170.156C160.412 170.773 161.258 171.087 162.21 171.087C163.127 171.087 163.775 170.79 163.775 170.173C163.775 169.434 162.911 169.207 161.69 168.782C160.359 168.305 158.794 167.723 158.794 166C158.794 164.097 160.756 163.428 162.409 163.428C163.74 163.428 165.719 163.94 165.719 165.296V166.443H163.757V165.93C163.757 165.453 163.22 165.191 162.409 165.191C161.69 165.191 161.077 165.436 161.077 166C161.077 166.739 161.976 167.06 163.004 167.339C164.405 167.764 166.064 168.34 166.064 170.104C166.064 171.937 164.3 172.833 162.198 172.833C160.546 172.833 158.473 172.129 158.473 170.668V169.626H158.467Z" fill="#28006A"/>
<path d="M167.535 170.947H168.866V165.313H167.447V163.643H171.155V170.953H172.469V172.624H167.541V170.947H167.535ZM168.849 160.116H171.149V162.106H168.849V160.116Z" fill="#28006A"/>
<path d="M177.84 163.422C178.85 163.422 179.475 163.718 179.89 164.056C180.123 164.248 180.322 164.463 180.485 164.69H180.52C180.52 164.638 180.52 164.568 180.503 164.516C180.485 164.394 180.485 164.254 180.485 164.056V161.786H179.066V160.116H182.757V170.563C182.757 170.825 182.885 170.953 183.154 170.953H183.983V172.624H181.822C180.976 172.624 180.655 172.181 180.655 171.675V171.57C180.655 171.465 180.672 171.361 180.69 171.273C180.707 171.221 180.707 171.186 180.707 171.169H180.672C180.509 171.465 180.293 171.751 180.024 171.995C179.539 172.42 178.821 172.839 177.665 172.839C175.219 172.839 173.654 170.901 173.654 168.136C173.648 165.273 175.359 163.422 177.84 163.422ZM178.214 170.947C179.434 170.947 180.532 170.103 180.532 168.183C180.532 166.722 179.796 165.348 178.284 165.348C176.988 165.348 175.949 166.349 175.949 168.13C175.949 169.836 176.865 170.947 178.214 170.947Z" fill="#28006A"/>
<path d="M190.195 167.071H190.773V166.774C190.773 165.628 190.037 165.226 189.08 165.226C188.379 165.226 187.766 165.436 187.282 165.651C186.996 165.773 186.721 165.931 186.488 166.093L185.641 164.545C185.927 164.336 186.254 164.138 186.628 163.981C187.258 163.701 188.175 163.434 189.273 163.434C191.737 163.434 193.05 164.668 193.05 166.972V170.563C193.05 170.825 193.179 170.953 193.447 170.953H194.276V172.624H192.116C191.269 172.624 190.948 172.182 190.948 171.675V171.57C190.948 171.431 190.966 171.326 190.983 171.233C191.001 171.18 191.001 171.146 191.001 171.111H190.966C190.802 171.425 190.586 171.71 190.318 171.972C189.833 172.414 189.15 172.833 188.07 172.833C186.488 172.833 185.028 171.937 185.028 170.104C185.034 167.351 188.724 167.071 190.195 167.071ZM188.665 171.157C189.909 171.157 190.791 169.853 190.791 168.724V168.427H190.411C189.494 168.427 187.334 168.567 187.334 169.923C187.334 170.61 187.825 171.157 188.665 171.157Z" fill="#28006A"/>
<path d="M199.531 163.422C200.541 163.422 201.166 163.718 201.581 164.056C201.814 164.248 202.013 164.463 202.176 164.69H202.211C202.211 164.638 202.211 164.568 202.194 164.516C202.176 164.394 202.176 164.254 202.176 164.056V161.786H200.758V160.116H204.448V170.563C204.448 170.825 204.576 170.953 204.845 170.953H205.674V172.624H203.513C202.667 172.624 202.346 172.181 202.346 171.675V171.57C202.346 171.465 202.363 171.361 202.381 171.273C202.398 171.221 202.398 171.186 202.398 171.169H202.363C202.2 171.465 201.984 171.751 201.715 171.995C201.23 172.42 200.512 172.839 199.356 172.839C196.91 172.839 195.345 170.901 195.345 168.136C195.339 165.273 197.05 163.422 199.531 163.422ZM199.911 170.947C201.131 170.947 202.229 170.103 202.229 168.183C202.229 166.722 201.493 165.348 199.981 165.348C198.685 165.348 197.645 166.349 197.645 168.13C197.645 169.836 198.562 170.947 199.911 170.947Z" fill="#28006A"/>
<path d="M211.512 163.422C214.157 163.422 215.594 165.308 215.594 167.682C215.594 167.805 215.594 167.997 215.576 168.16L215.541 168.439H209.195C209.34 170.075 210.561 170.942 211.945 170.942C212.715 170.942 213.346 170.732 213.83 170.464C214.117 170.325 214.368 170.168 214.601 169.987L215.483 171.57C215.214 171.797 214.87 171.995 214.496 172.187C213.848 172.519 212.931 172.822 211.781 172.822C208.739 172.822 206.853 170.657 206.853 168.119C206.853 165.36 208.757 163.422 211.512 163.422ZM213.235 167.124C213.182 165.872 212.441 165.151 211.454 165.151C210.286 165.151 209.457 165.925 209.241 167.124H213.235Z" fill="#28006A"/>
</svg>
