<svg width="1440" height="651" viewBox="0 0 1440 651" fill="none" xmlns="http://www.w3.org/2000/svg">
<path d="M-680.8 294.5C-552.8 200 -403.2 140.6 -252.2 93.8C-175.3 70 -97.5 48.7 -19.5 28.7C65.2 7.00002 151.3 -11.9 238.8 -19C325 -26 412.2 -20.8 495.9 2.20002C575.6 24.1 651.1 59.6 726 94C798.4 127.2 871.1 160.5 947.6 183.1C1029.9 207.4 1115.3 216 1200.7 219.2C1281.9 222.2 1364 224.2 1445.1 219.7C1518.1 215.6 1592 204.3 1659 173.7C1675.7 166.1 1691.8 157.2 1707.3 147.3C1708.9 146.3 1707.4 143.7 1705.8 144.7C1571.2 230.8 1399.8 220.6 1246.8 217.5C1158.4 215.7 1069.3 210.8 983 189.6C903.1 169.9 827.3 136.9 752.6 102.9C680 69.8 607.7 35.3 531.8 10C452.2 -16.5 368.6 -27.2 284.9 -24.6C200.6 -22 117.3 -7.09998 35.3 12.1C-45.6 31.1 -126 53.1 -205.7 76.6C-355.2 120.5 -504.5 173.9 -635.8 259.5C-651.7 269.8 -667.2 280.7 -682.5 291.9C-683.9 293 -682.4 295.6 -680.8 294.5Z" fill="#3F4575"/>
<path d="M1723.7 176.4C1576.5 257.9 1397.8 235.2 1236.8 227C1150.3 222.6 1063.8 215.6 979.6 194.8C900.1 175.1 824 144.5 749 112.1C675.8 80.5 603.2 46.5 527.8 20.1C452.1 -6.39999 371.8 -15.4 291.9 -10.5C212.1 -5.59999 133.7 12.2 56.4999 32.5C-26.3 54.3 -108.8 77.4 -191.1 100.9C-339.9 143.4 -488.5 195.6 -619.2 280.1C-635.4 290.6 -651.3 301.6 -666.9 313.1C-668.4 314.2 -666.9 316.8 -665.4 315.7C-537.9 221.9 -389 163.5 -238.6 118C-157.9 93.5 -76.3 72 4.99994 49.6C85.4 27.3 166.6 5.90001 249.7 -3.69999C330.9 -13.1 413.3 -9.99999 492.4 12.1C572.2 34.3 648.2 71.4 723.9 104.4C796.3 136 869.3 166.9 945.4 188.8C1025.5 211.8 1107.9 222.2 1190.9 227.5C1275.4 232.9 1360.5 238.4 1445.2 238.4C1523.2 238.4 1602.7 230.9 1675.9 202.4C1692.9 195.8 1709.4 188 1725.3 179.1C1726.9 178.1 1725.4 175.5 1723.7 176.4Z" fill="#3F4575"/>
<path d="M1741.8 208.1C1587.3 281.2 1411.3 249.6 1247.8 237C1160.9 230.3 1073.8 222.9 988.8 203C909.4 184.4 832.5 156.8 757 126.2C680 95 604.6 58.6 526.4 30.3C452.9 3.69999 374.8 -3.80001 297.2 3.99999C220 11.7 144.8 32.6 70.6 54.6C-10.2 78.6 -91.2 101.5 -172.5 124C-322.2 165.5 -472 216.8 -603.5 301.3C-619.8 311.8 -635.7 322.8 -651.3 334.2C-652.8 335.3 -651.3 337.9 -649.8 336.8C-521.8 242.8 -371.7 185.3 -220.4 140.8C-140.5 117.3 -59.7 96.9 20.1 72.9C96.7 49.9 173.6 25.9 252.7 13C332.3 -1.23978e-05 413.6 0.399988 491.6 22.4C532.4 33.9 571.4 51.5 610.4 67.9C648.2 83.9 685.9 100.1 723.8 115.9C798.8 147.1 874.9 176.3 953.4 197.4C1034.7 219.2 1117.9 229.5 1201.6 236.5C1244.4 240.1 1287.3 242.7 1330.1 246.7C1371.4 250.5 1412.2 254.5 1453.6 256.3C1533.6 259.9 1615.2 256.2 1692 231.2C1709.5 225.5 1726.5 218.7 1743.1 210.8C1745.1 209.9 1743.5 207.3 1741.8 208.1Z" fill="#3F4575"/>
<path d="M1760.2 239.7C1681.9 270.9 1596.6 278.5 1513 274.7C1428.4 270.9 1345.1 256.2 1261 247.5C1173.7 238.5 1086.2 230.6 1000.3 211.9C920.3 194.5 842 169.8 765.5 140.7C725.6 125.6 686.2 109.4 647 92.6C609.2 76.4 571.9 58.4 533.6 43.4C462.4 15.6 386.3 8.40001 310.7 18.1C235.4 27.8 162.7 51.6 90.9 75.1C10.5 101.4 -70.3 124.8 -152 146.6C-303.3 187.1 -455 237.5 -587.8 322.4C-604.1 332.8 -620 343.8 -635.6 355.2C-637.1 356.3 -635.6 358.9 -634.1 357.8C-505.4 263.6 -354.2 206.8 -201.9 163.4C-121.3 140.4 -40 120.6 39.8 94.8C114.6 70.7 189.1 43.8 266.4 28.3C342.6 13.1 420.8 11.6 496 33.5C537.9 45.8 577.2 65.4 617.1 82.7C653.4 98.5 689.8 113.9 726.5 128.5C802.2 158.6 879.4 185.2 958.5 204.9C1040.6 225.3 1124.1 236.1 1208.1 244.8C1251 249.2 1294 253.1 1336.8 258.6C1357.9 261.3 1378.8 265.2 1399.9 268C1419.9 270.7 1440.1 271.8 1460.2 273.5C1541.8 280.6 1624.6 281.2 1704.5 260.7C1723.7 255.8 1742.6 249.6 1761 242.2C1762.8 241.9 1762 239 1760.2 239.7Z" fill="#3F4575"/>
<path d="M1778.3 271.4C1695.3 298.7 1606.7 302.3 1520.3 294.4C1477.9 290.5 1434.7 285.9 1392.9 277.6C1352 269.5 1311.1 262.9 1269.7 257.6C1182.3 246.3 1094.5 237.6 1008 220C928.1 203.7 849.4 182.1 772.5 154.8C732.6 140.6 693.1 125.1 654.2 108.3C616.2 91.9 579.5 72.8 541.4 56.8C474.3 28.6 402.4 20.9 330.6 31.3C256.4 42 185.4 68.6 115.2 94C35.3 122.9 -45.1 147.5 -127.4 168.6C-281.1 208 -435.3 257.4 -570.3 342.9C-587.2 353.6 -603.8 364.9 -620 376.7C-621.5 377.8 -620 380.4 -618.5 379.3C-487.3 283.6 -332.8 227.5 -177.4 184.9C-96.3 162.7 -15.1 143.1 64.3 115.3C136.8 89.9 208.5 60.7 283.5 43.3C357 26.3 432.5 23.9 505.1 46.7C545.9 59.5 583.8 80.3 622.7 97.8C659.4 114.3 696.5 129.8 734 144C809.8 172.8 887.5 196.2 966.5 214.2C1049.1 233 1132.7 243.9 1216.8 254.1C1261.5 259.5 1306.5 264.5 1350.9 272.4C1371 276 1391 280.7 1411.1 284.2C1429.6 287.4 1448.3 288.9 1467 291.2C1550.9 301.6 1635.1 306.5 1718.7 290.2C1739.2 286.2 1759.3 280.9 1779.2 274.4C1780.9 273.7 1780.1 270.8 1778.3 271.4Z" fill="#3F4575"/>
<path d="M1796.3 303.1C1708.1 326.3 1615.3 326 1525.4 313.4C1483.6 307.5 1441.1 301.8 1400.1 291.7C1359.1 281.6 1318 273.7 1276.2 267.3C1189.3 253.8 1101.8 244.4 1015.4 228C935.6 212.9 856.4 194.3 779.2 168.9C739.2 155.7 699.8 140.7 661.2 123.9C622 106.8 584.7 85.6 545.5 68.4C481.7 40.5 413 33.1 344.5 44.8C272.4 57.1 204.3 86.2 136.7 113C58.2 144.2 -21.0001 170.1 -103 190.3C-259.7 228.8 -417.3 277.4 -554.8 364C-571.8 374.7 -588.3 386 -604.5 397.7C-606 398.8 -604.6 401.4 -603 400.3C-469.4 303.1 -311.4 247.7 -153 206.1C-71.6 184.7 9.29993 165 88.2 135.1C158.5 108.5 227.4 76.9 300.2 57.6C371 38.8 444.1 35.8 514.2 59.4C554.7 73.1 591.7 95.2 630.4 113.2C666.1 129.8 702.6 144.9 739.6 158.3C815.4 185.8 893.5 206.2 972.4 222.5C1057.5 240.1 1143.5 251.2 1229.5 263.4C1273.3 269.6 1317.4 275.6 1360.6 285.2C1379.6 289.4 1398.3 294.6 1417.2 298.8C1437 303.2 1457.1 305.3 1477.2 308.5C1562.8 322.3 1648.3 330.8 1734.7 318.5C1755.7 315.5 1776.5 311.3 1797 305.9C1799 305.5 1798.2 302.6 1796.3 303.1Z" fill="#3F4575"/>
<path d="M1814.4 334.8C1722.5 353.4 1626.6 349.6 1534.7 332.6C1493.6 325 1451.7 318.4 1411.5 306.9C1369.9 295 1328.4 285.2 1285.8 277.5C1119.7 247.4 950.4 233 788.1 183.8C749 172 710.6 158 673.2 141.7C634 124.6 597.5 102.8 559.1 84.2C497.4 54.3 430.3 45.1 362.9 57.6C293.9 70.4 229.5 100.8 165.6 128.6C87.6999 162.6 9.09991 191.5 -73.7001 211.2C-234.4 249.4 -396.1 296.1 -537.4 384.1C-555 395.1 -572.2 406.7 -589 418.9C-590.5 420 -589.1 422.6 -587.5 421.5C-450.9 322.4 -288.7 267.8 -126.5 227.1C-84.5001 216.6 -42.3 207.3 -0.800049 195C39.1 183.2 77.9999 168.8 116.5 152.9C183.8 125 249.5 91.7 319.6 71.2C387.7 51.2 458 48.5 525.4 73.2C566 88 602.5 112 641.4 130.5C677.2 147.6 713.9 162.5 751.4 175.2C909.2 228.9 1076.1 246.3 1239.8 272.7C1284.2 279.9 1329.1 287.2 1372.6 298.9C1391.3 303.9 1409.7 309.9 1428.4 314.7C1448.3 319.9 1468.5 322.4 1488.6 326.4C1576.5 343.7 1664.1 355.7 1753.9 346.9C1774.5 344.9 1794.9 341.8 1815.2 337.7C1817.1 337.3 1816.3 334.4 1814.4 334.8Z" fill="#3F4575"/>
<path d="M1832.4 366.5C1738.8 380 1642.9 373 1550.8 353.1C1527.9 348.2 1505.3 341.7 1482.3 337.2C1462.6 333.3 1443.7 328.9 1424.6 322.7C1384.8 309.8 1345.4 298.3 1304.5 289.5C1137.8 253.8 965.5 244.5 800.7 199.5C761 188.6 721.9 175.3 684.1 158.8C644.6 141.6 608.6 119.2 570.6 99.1C511.5 67.9 446.4 56.8 380.6 69.9C314 83.2 252.5 115.2 191.7 144.2C114.7 181 37 212.4 -46.1 232.3C-211 271.8 -376.2 314.9 -521.9 405.1C-539.5 416 -556.8 427.6 -573.6 439.8C-575.1 440.9 -573.7 443.5 -572.1 442.4C-432.5 341.4 -266 287.7 -100 248C-57.0001 237.7 -13.9 228.3 28.3 215C66.6 203 103.9 188 140.5 171.5C206.1 141.9 269.6 106.2 338.3 84.1C404.5 62.8 472.9 60.9 538.1 87.2C578.2 103.4 613.9 128.7 652.7 147.6C688.2 164.9 725 179.4 762.6 191.3C838.3 215.4 916.8 228.9 995.1 241.4C1081.5 255.3 1168.3 266.6 1254.4 282.5C1298.3 290.6 1342.9 299.2 1385.5 312.8C1404.5 318.8 1423.2 325.7 1442.3 331.2C1461.8 336.8 1481.8 339.7 1501.5 344.3C1590.8 365.2 1679.9 380.1 1772 375.2C1792.4 374.1 1812.8 372.1 1833.1 369.1C1835.1 369.2 1834.3 366.3 1832.4 366.5Z" fill="#3F4575"/>
<path d="M1850.9 398.2C1755.7 406.8 1659.4 396.8 1566.8 374C1544.7 368.5 1523 361.6 1500.8 356.2C1481.3 351.4 1462.2 347.6 1443.2 340.9C1402.4 326.6 1362.7 312.2 1320.7 301.7C1233.4 280 1144.1 268 1055.2 254.9C975 243.1 894 234.5 815.1 215.5C775.1 205.9 735.7 193.4 697.8 177.2C658.2 160.3 622.5 138 585.5 116.3C528.3 82.7 464.3 68.5 398.9 82.1C334.3 95.5 275.6 129.1 217.7 159.4C143.9 198 69.2999 231.7 -11.7001 252.2C-98.4001 274.1 -185.6 291.9 -270.7 320C-351.9 346.9 -431.3 380.6 -504.3 425.3C-522.6 436.5 -540.4 448.4 -557.8 461C-559.4 462.1 -557.9 464.7 -556.3 463.6C-413.7 360.7 -242.8 308 -73.2 269.4C-28.1 259.2 16.7999 249.1 60.4999 234C96.7999 221.5 132 205.9 166.5 189C229.4 158 290 120.4 356.5 97.2C421.7 74.4 488.8 73.6 552.3 102.4C590.5 119.7 624.4 145.2 661.9 163.9C696.8 181.3 733.3 195.5 770.7 206.7C847.3 229.6 926.8 239.9 1005.7 250.9C1092.2 262.9 1179.1 274.4 1264.6 292.1C1308.6 301.2 1353.2 311.2 1395.5 326.4C1414.8 333.3 1433.8 341.1 1453.3 347.4C1472.8 353.7 1493.1 357 1512.8 362.3C1558 374.4 1602.9 386.3 1649.2 393.5C1693.7 400.4 1738.7 404.2 1783.7 404.2C1806.1 404.2 1828.5 403.1 1850.8 401.1C1852.8 401 1852.8 398 1850.9 398.2Z" fill="#3F4575"/>
<path d="M1869 429.9C1772.5 433.7 1675.7 420.8 1582.7 395C1559.5 388.6 1536.8 380.5 1513.7 374.1C1494.1 368.6 1474.7 364.5 1455.6 357.2C1416 342.1 1377.7 325.9 1336.7 314.3C1249.1 289.4 1159 276.1 1068.9 263.9C987.8 252.9 905.7 247.4 825.5 230.5C786.6 222.3 748.3 211.1 711.6 195.8C670.5 178.7 634 155.5 596.5 131.7C541.7 97 479.5 80.4 415.3 94.5C352.2 108.3 295.8 143.9 240.4 175.5C168.7 216.4 96 252.5 15.8 273.6C-28.1 285.2 -72.9 293.3 -117 304C-160.6 314.6 -204 326.3 -246.7 339.9C-330.2 366.4 -411.9 400.1 -487 445.6C-505.9 457.1 -524.4 469.3 -542.4 482.2C-544 483.3 -542.5 485.9 -540.9 484.8C-395.1 380.2 -220 328.5 -46.6 291.1C-1.10004 281.3 43.9 270.6 87.6 254.3C123 241.1 157.1 224.7 190.4 206.9C251.2 174.4 309.2 134.7 374 110.2C437.7 86.1 502.9 86.7 564.4 117.1C602.2 135.8 635.4 162.4 673.1 181.4C707.8 198.9 744.3 212.7 781.8 223C858.3 244 937.6 251 1016.1 260.2C1104.1 270.6 1192.6 282.5 1278.9 302.5C1323.1 312.7 1367.5 324.5 1409.5 341.6C1428 349.1 1446.2 357.1 1465 363.8C1484.9 370.8 1505.6 374.6 1525.8 380.7C1571.6 394.6 1617 408.1 1664.1 417C1708.9 425.4 1754.3 430.9 1799.8 432.8C1822.8 433.8 1845.8 433.8 1868.8 432.9C1870.9 432.8 1870.9 429.8 1869 429.9Z" fill="#3F4575"/>
<path d="M1887 461.6C1788.5 460.7 1690.3 444.8 1596.3 415.6C1573.1 408.4 1550.5 399.7 1527.4 392.4C1508.2 386.3 1488.7 382.1 1470 374.5C1429.9 358.3 1391.7 339.8 1350.4 326.6C1264.4 299.2 1175.4 284.5 1086.1 273.1C1003.5 262.6 919.8 260.3 837.8 245.6C799.2 238.7 761.2 228.7 724.8 214C682.3 196.9 645.2 172.9 607.5 147.2C554.9 111.4 494.1 92.2 430.9 106.9C369.6 121.1 315.6 158.3 263 191.1C194.8 233.5 125.3 271.7 47.6 293.8C1.59998 306.9 -45.8 314.8 -92.4 325.5C-136.8 335.7 -180.9 347.2 -224.5 360.5C-310.3 386.8 -394.2 420.6 -471.3 466.9C-490.3 478.3 -508.7 490.5 -526.7 503.4C-528.3 504.5 -526.8 507.1 -525.2 506C-375.9 399 -195.6 348.6 -17.9 312.3C27.6 303 72.5 291.1 115.6 273.5C150.3 259.3 183.6 242 216 223C274.1 189.1 329.4 147.7 392.1 122.4C419.5 111.3 448.6 104.1 478.3 104.4C512.3 104.8 545.2 115.1 575 130.9C612.8 151 645.5 178.8 683.8 198.4C718.6 216.2 755.4 229.6 793.3 239C869.6 258.1 948.6 261.7 1026.6 269.3C1116.1 278 1206.1 290.6 1293.3 313.1C1338.5 324.8 1383.1 338.9 1425.7 358.1C1443.4 366.1 1461.1 374.4 1479.3 381.2C1498.9 388.4 1519.4 392.6 1539.1 399.3C1585.4 415 1631.3 430 1679.1 440.5C1724.9 450.6 1771.5 457.7 1818.2 461.4C1841.1 463.2 1864 464.2 1887 464.4C1889 464.6 1889 461.6 1887 461.6Z" fill="#3F4575"/>
<path d="M1905.1 493.3C1804.7 487.8 1705 468.8 1609.8 436.4C1585.7 428.2 1562.2 418.2 1538.1 409.9C1517.6 402.8 1497.1 397.8 1477.2 388.9C1439.3 372 1403.1 353 1363.9 339.1C1277.8 308.5 1188 292.1 1097.4 281.4C1014 271.6 929.4 272.4 846.3 259.8C807.1 253.9 768.5 244.4 731.8 229.5C689.7 212.5 653.4 187.9 616.8 161.5C566.2 125.1 506.9 103.8 444.8 119.3C385.1 134.2 333.6 173.2 283.4 207C217.3 251.6 149.5 292.1 72.7 315.3C26.8 329.1 -20.6 336.6 -67.3 346.8C-112.8 356.8 -158.1 368 -202.8 381.2C-290.2 407 -375.8 440.6 -454.2 487.3C-473.7 498.9 -492.6 511.3 -511.1 524.5C-512.7 525.6 -511.2 528.2 -509.6 527.1C-357.2 418.1 -173.8 370.5 7.29999 334.5C90.6 317.9 166.4 285.8 237.9 240.5C293.1 205.6 345.2 163.2 405.1 136.4C431.7 124.5 460.2 116.5 489.5 116.7C523 116.9 555.1 127.8 584.1 144.1C621.5 165.1 653.4 194 691.5 214C726.5 232.4 764 245.8 802.5 254.6C879.2 272.1 958.5 272.4 1036.5 278.5C1127.6 285.6 1219.3 298.8 1307.3 324.1C1352 336.9 1395.6 352.8 1437.4 373.3C1454.4 381.6 1471.4 390.1 1489 397.2C1508.9 405.2 1529.9 409.9 1550 417.4C1597.5 435 1644.6 452 1693.9 464.4C1740.1 476 1787 484.6 1834.3 490.3C1857.8 493.1 1881.4 495.1 1905.1 496.4C1907 496.4 1907 493.4 1905.1 493.3Z" fill="#3F4575"/>
<path d="M1923.1 525C1820.9 514.9 1719.6 492.9 1623.3 457.1C1599.2 448.1 1575.7 437.5 1551.6 428.4C1530.9 420.6 1509.8 415.1 1489.7 405.6C1452 387.8 1416.2 367.2 1377.3 351.9C1290.5 317.8 1199.3 299.5 1106.8 289.5C1024.1 280.6 940.5 284.3 857.8 274.5C818 269.8 778.6 261 741.3 246.1C698.5 229 662.3 203.6 625.9 175.9C577.3 139 519.4 115.4 458.3 131.8C400.1 147.4 351 188.1 303.3 223C240.9 268.6 176.3 311 102.3 335.3C55.5999 350.7 7.19995 358.2 -40.8 368.1C-87.8 377.8 -134.6 388.8 -180.7 401.9C-269.7 427.2 -357 460.4 -436.8 507.4C-456.9 519.3 -476.5 532 -495.5 545.6C-497.1 546.7 -495.6 549.3 -494 548.2C-416.6 493 -329.7 453 -239.6 423.1C-149.1 393.1 -56.3 375.5 36.7 355.9C117.9 338.8 191 304.7 259.2 258C312.3 221.7 361.9 177.7 420 149.5C445.5 137.1 473.2 128.7 501.8 129C534.3 129.3 565.4 140.7 593.1 157.2C630.5 179.3 661.9 209.5 700.4 230.2C734.9 248.7 772.1 261.8 810.4 269.8C888.1 286 968.1 283 1046.9 287.6C1138.1 292.9 1229.8 306.6 1317.1 333.9C1362.6 348.1 1406.5 366 1448.6 388.1C1465.9 397.2 1483.2 406.4 1501.2 414.1C1521.3 422.6 1542.7 427.9 1563 436.1C1610.3 455.2 1657.3 473.5 1706.4 487.4C1754.9 501.1 1804.3 511.8 1854.2 519.4C1877.1 522.9 1900 525.7 1923 528C1925.1 528.2 1925 525.2 1923.1 525Z" fill="#3F4575"/>
<path d="M1941.6 556.8C1839 542.4 1737.5 517.9 1641 479.8C1615.9 469.9 1591.5 458.2 1566.6 447.8C1546.1 439.3 1524.7 433.5 1504.7 423.8C1466.3 405.1 1430.5 382.3 1391.2 365.3C1305.4 328.3 1214.6 307.7 1121.8 298.3C1037.9 289.8 953.6 296.4 869.8 289.1C829.8 285.6 790.1 278 752.6 263.5C708 246.2 671.4 219.1 634.2 189.6C588.3 153.2 532.7 127.7 473.6 143.9C417.9 159.2 371.8 200.2 327.5 235.3C267.3 282.9 205.1 328.4 132.4 354.9C85.4999 372 36.7999 379.9 -12.0001 389.4C-59.8 398.7 -107.4 409.2 -154.4 421.9C-247 446.9 -338.1 480.4 -421.1 528.9C-441.4 540.7 -461 553.4 -480 567C-481.6 568.1 -480.1 570.7 -478.5 569.6C-398.7 512.9 -308.8 472.6 -215.7 443C-170 428.5 -123.5 416.4 -76.7001 405.9C-29.3001 395.3 18.7999 388.2 66.0999 377.5C145.9 359.3 216.5 322.7 281.9 274.3C332.5 236.8 379.4 191.6 435.6 162.4C460 149.7 486.7 141.1 514.5 141.6C546.1 142.1 575.9 154.2 602.4 170.7C639.2 193.6 669.6 224.6 707.7 245.7C742.2 264.8 779.6 277.9 818.4 285.2C896.4 300 976.6 293.7 1055.5 296.7C1147.4 300.2 1239.8 314.4 1327 343.8C1372.3 359.1 1415.6 378.4 1457.2 401.7C1475.3 411.8 1493.3 422.1 1512.2 430.6C1532.9 439.9 1554.9 445.8 1575.8 454.9C1622.3 475.2 1668.6 494.6 1717 509.9C1766.6 525.6 1817.1 538.1 1868.2 547.8C1892.3 552.4 1916.5 556.3 1940.8 559.7C1942.7 560 1943.5 557.1 1941.6 556.8Z" fill="#3F4575"/>
<path d="M1959.7 588.5C1853.2 569.4 1748 541.1 1648.5 498.3C1624.1 487.8 1600.5 475.6 1576.2 464.9C1556.9 456.4 1536.5 450.6 1517.7 441.1C1480 422.1 1445.2 398 1407 379.9C1322.2 339.6 1231.5 316.2 1138.2 307.1C1053.2 298.8 968.4 307.9 883.4 303.5C843.5 301.4 803.8 295.3 766.2 281.5C721.4 265.1 683.5 238.4 647.6 207.5C603.5 169.6 548.3 139.2 488.9 155.6C434.5 170.7 390.3 213.3 348.5 249.1C290.8 298.4 231.1 346.1 160.1 374.7C113.1 393.7 64.2 402.1 14.5999 411.1C-34.7 420.1 -83.7 430.3 -132.2 442.9C-225.8 467.1 -317.8 499.9 -401.9 548.1C-423.4 560.4 -444.2 573.8 -464.4 588.1C-466 589.2 -464.5 591.8 -462.9 590.7C-381.9 533.3 -290.3 493 -195.7 463.9C-147.8 449.2 -99.2 437.1 -50.2 426.8C-1.90005 416.6 47.5 410.5 95.4 398.6C172.8 379.3 240.5 340.7 302.5 291.2C351.6 252 396.6 204.5 452 174.1C475.5 161.2 501.5 152.7 528.6 153.7C559.6 154.9 588.6 168.3 613.9 185.3C632.8 198 649.2 213.7 667 227.9C684.2 241.7 702.5 254.1 721.8 264.6C756.2 283.3 793.7 295.3 832.4 301.3C911.8 313.6 992.8 303.8 1072.7 305.9C1164.9 308.3 1257.3 324 1343.8 356.3C1388.6 373.1 1430.6 394.4 1471.6 418.7C1489.4 429.2 1507.2 439.9 1526 448.5C1546.5 457.8 1568.1 464.3 1588.5 473.9C1635.5 495.9 1682.5 516.7 1731.7 533.6C1781.7 550.8 1832.7 564.8 1884.2 576.4C1908.9 582 1933.8 586.9 1958.7 591.4C1960.7 591.8 1961.6 588.9 1959.7 588.5Z" fill="#3F4575"/>
<path d="M1977.7 620.2C1869.6 596.8 1762.6 565.5 1661.9 519.3C1637.4 508.1 1613.7 495.2 1589.4 483.7C1569.8 474.4 1549 468.1 1529.8 458.1C1492.2 438.4 1457.9 413.1 1420.1 393.6C1334.9 349.6 1242.7 323.5 1147.3 315C1062.3 307.4 978.1 319.2 893.2 317.5C853.2 316.7 813.2 311.5 775.4 297.9C730 281.6 692.1 253.9 656.6 221.9C614.9 184.3 561.1 151.1 503.1 167.5C449.7 182.6 407.4 226.9 367.9 263.4C313.6 313.5 257.3 362.2 189.4 393C142.6 414.2 93.6 424.1 43.3 432.6C-7.40005 441.2 -57.9001 451.1 -107.9 463.4C-204.4 487.1 -299.6 519.9 -386.2 569.3C-407.7 581.6 -428.6 594.9 -448.8 609.2C-450.4 610.3 -448.9 612.9 -447.3 611.8C-363.9 552.8 -269.3 512.4 -171.6 483.6C-123.5 469.4 -74.7 458 -25.6 448.2C25 438.1 76.9 432.7 126.7 418.7C201.9 397.7 266.6 356.4 325.2 305.8C371.7 265.6 414.2 216.9 467.8 186C490.1 173.2 514.9 164.7 540.9 166C571.6 167.5 599.9 181.9 624.4 199.4C642.7 212.5 658.5 228.3 675.7 242.6C692.9 257 711.2 269.9 730.8 280.7C765.3 299.7 803 311.4 842 316.6C921.3 327.1 1001.7 314.1 1081.3 314.6C1175 315.2 1268.7 331.9 1355.7 367C1400.6 385.1 1442 408.2 1482.9 433.8C1500.5 444.7 1518.1 455.8 1536.8 464.8C1558 475 1580.4 482.3 1601.5 492.8C1649.1 516.5 1696.8 538.8 1746.7 557.3C1797.1 575.9 1848.5 591.6 1900.5 604.9C1925.9 611.4 1951.4 617.4 1977 622.9C1978.8 623.5 1979.6 620.6 1977.7 620.2Z" fill="#3F4575"/>
<path d="M1995.8 651.9C1886 624.2 1777.4 589.9 1675.3 540.4C1649.9 528.1 1625.5 514.1 1600.3 501.5C1580.4 491.6 1559.2 484.7 1539.7 474C1502.4 453.4 1468.6 427.3 1431.4 406.6C1347.4 360 1255.5 331.4 1159.8 323.2C1074.2 315.9 990.2 330.3 904.8 331.4C864.7 331.9 824.4 328 786.4 314.9C740.4 299.1 702 270.8 667.1 237.5C627.4 199.7 574.6 163 517.2 179.4C465.2 194.2 424.9 239.9 387.9 276.7C335.7 328.5 281.8 379.3 215.3 412.4C170 434.9 121.8 446.7 72.0999 454.5C19.8999 462.7 -32.1 472.2 -83.5 484.2C-182.4 507.3 -279.9 539.6 -368.6 589.6C-390.8 602.1 -412.3 615.7 -433.1 630.4C-434.7 631.5 -433.2 634.1 -431.6 633C-346.4 572.9 -249.4 532.5 -149.4 504.2C-99.8 490.2 -49.5001 479 1.09995 469.6C53.3 459.9 106.8 454.8 157.5 438.8C230.2 415.8 291.8 372.2 347.1 320.6C391.1 279.5 431.2 229.6 483.2 198.1C504.3 185.3 528 177 553 178.5C584.3 180.4 612.8 196.7 637.1 215.5C655 229.3 670.4 245.7 687.5 260.3C704.2 274.6 722.1 287.4 741.3 298C775 316.7 812.1 327.8 850.4 332.1C931.8 341.2 1013.8 324.3 1095.3 323.8C1189.6 323.2 1283.5 341.4 1370 379.5C1413.4 398.6 1453.3 422.7 1492.9 448.6C1510.8 460.3 1528.8 472.1 1547.9 481.7C1569.2 492.4 1591.6 500.2 1612.8 511.3C1660.9 536.5 1709.1 560.6 1759.6 580.7C1811.7 601.4 1865.1 619 1919 634.5C1944.3 641.8 1969.8 648.5 1995.4 655C1996.8 655.3 1997.6 652.4 1995.8 651.9Z" fill="#3F4575"/>
<path d="M2013.8 683.7C1902.4 651.8 1792 614.4 1688.6 561.6C1663.1 548.6 1638.6 533.9 1613.3 520.6C1593.3 510 1571.8 502.7 1552.1 491.6C1516.1 471.2 1483.7 445 1448.3 423.5C1364.9 373 1272.7 340.4 1175.4 331.9C1088 324.3 1003.1 341.4 916.1 345.3C876.2 347.1 835.9 344.6 797.7 332.2C750.8 316.9 711.8 287.8 677.1 253.3C639 215.5 587.1 174.9 530 191.6C479.4 206.4 441.3 253.3 406.7 290.2C356.7 343.6 305.1 396.3 240.3 431.5C195.5 455.8 146.7 469.8 96.4 477.2C44.2 484.9 -7.89999 493.8 -59.5 505.2C-160.7 527.5 -260.7 559.4 -351.5 610C-374.3 622.7 -396.5 636.6 -417.8 651.7C-419.4 652.8 -417.9 655.4 -416.3 654.3C-329.2 593.1 -229.9 552.8 -127.6 525C-76.5 511.2 -24.7 500.3 27.4 491.3C80.5 482.1 134.5 477.2 185.6 459.1C256.3 434.2 315.2 388.3 367.5 335.6C409.4 293.4 447.2 242.2 497.9 210C518.3 197.1 541.4 188.9 565.8 191C597.1 193.8 625.2 211.8 648.8 231.4C666.4 246 681.6 263 698.8 277.9C715.6 292.5 733.7 305.6 753.2 316.2C786.4 334.3 823.1 344.4 860.7 347.6C943.4 354.6 1025.9 334 1108.4 332.5C1204.8 330.8 1300.1 351.4 1386.9 393.4C1429.8 414.2 1468.6 440.3 1508 467C1525.1 478.6 1542.4 490.3 1560.9 499.6C1582.8 510.6 1605.5 519.4 1627 531.4C1724.7 585.7 1826 628.5 1932.6 662.4C1959.3 670.9 1986.1 678.9 2013.1 686.6C2014.9 687.1 2015.7 684.2 2013.8 683.7Z" fill="#3F4575"/>
<path d="M2031.9 715.4C1920.2 679.8 1809.3 639.8 1705.6 584.7C1679.3 570.7 1654 555.1 1628.1 540.5C1607.8 529.1 1585.9 521.1 1565.8 509.6C1530.5 489.4 1499.2 463.2 1465.4 440.8C1382.5 385.8 1288.6 348.9 1189.1 340.2C1144.1 336.3 1099.1 338.2 1054.3 343.3C1012.5 348.1 971 355.5 929.1 358.8C889.2 362 848.6 361.1 810 349.4C763.4 335.3 723.7 306.5 690.2 271.8C653.4 233.6 602.3 186.8 544.4 203.3C494.2 217.6 457.5 266.8 424.9 304.3C377.2 359 328 413.3 264.9 450.5C222.3 475.7 175 491.6 126.2 499.2C72.3 507.6 18.4999 515.1 -34.9001 526.2C-139 547.9 -242.2 579.5 -335.6 631.2C-358.5 643.9 -380.6 657.7 -402.1 672.7C-403.7 673.8 -402.2 676.4 -400.6 675.3C-311.1 612.6 -208.7 572.3 -103.3 545.1C-51.4 531.7 1.29999 521.4 54.2 512.9C108.3 504.2 162.4 499.1 213.8 478.8C282.9 451.5 339.5 403.1 389.2 348.9C411 325.2 431.6 300.4 453.3 276.5C471.5 256.4 490.6 236.2 513.4 221.3C533 208.4 555.6 200.5 579.2 203.5C610 207.3 637.2 226.5 659.9 246.5C677.5 262 692.7 279.8 710.2 295.3C726.5 309.7 744.2 322.7 763.4 333.1C797.2 351.6 834.7 361.1 873.1 363C957.2 367.3 1040.1 343.1 1124 341C1220.7 338.6 1315.4 361.4 1401.1 406.2C1443.5 428.4 1481.5 456 1520.5 483.4C1537 495 1553.7 506.7 1571.7 516.1C1594.4 528 1617.9 537.7 1640.1 550.7C1739.4 608.6 1843.1 654.4 1951.8 691.9C1978.2 701 2004.6 709.7 2031.2 718.1C2032.9 718.8 2033.7 716 2031.9 715.4Z" fill="#3F4575"/>
<path d="M2049.9 747.1C1935.9 707.2 1822.5 663.9 1716.8 604.9C1691 590.5 1666.3 574.6 1640.9 559.6C1619.9 547.2 1597.1 538.4 1576.3 526C1540.6 504.7 1509 477.5 1475 453.7C1393.2 396.4 1299.7 356.6 1199.6 348.1C1155.1 344.4 1110.6 346.9 1066.4 352.9C1023.2 358.8 980.5 367.8 937.2 372.5C897.7 376.8 857.4 376.9 819 365.7C772.5 352.1 733.2 322.8 700.4 287.8C664.8 249.8 614.5 198.3 556.6 215.3C507.9 229.7 473.4 279.8 443.1 317.2C397.7 373.1 351 429 289.9 468.4C249.2 494.7 203.6 512.2 156 520.9C100.7 531 44.7 536.5 -10.6 547.3C-116.4 568.2 -221.4 599 -316.5 650.5C-340.7 663.6 -364.1 678.1 -386.7 693.9C-388.3 695 -386.8 697.6 -385.2 696.5C-294.5 633.1 -190.3 593 -83.4 566.5C-29.3 553.1 25.6 543 80.6 534.8C133.7 526.9 186.1 521.5 236.1 500.4C304.6 471.5 359.5 420.9 407.3 365.2C428.6 340.4 448.6 314.5 469.7 289.6C486.8 269.4 504.8 249 526.6 233.8C545.7 220.4 568 212.5 591.5 216.1C621.6 220.8 647.7 240.7 669.4 260.8C686.4 276.5 701.2 294.5 718.3 310.2C735 325.5 753.3 339.3 773.2 350.1C806.7 368.4 844 377.2 882 378.3C966.6 380.6 1049.2 353.1 1133.6 349.8C1231.4 345.9 1326.6 370.5 1412 418C1454.3 441.5 1492 470.7 1531 499.2C1548 511.6 1565.3 524.3 1584 534.1C1606.9 546.1 1630 556.7 1652.2 570.2C1752.4 631.3 1857.5 679.8 1967.5 720.8C1994.5 730.9 2021.7 740.6 2048.9 750.1C2051 750.6 2051.8 747.7 2049.9 747.1Z" fill="#3F4575"/>
<path d="M2068 778.8C1952.4 734.9 1837.2 688.5 1730.1 626.2C1703.5 610.8 1678 593.7 1651.8 577.7C1630.8 564.9 1608 555.6 1587.1 542.8C1550.8 520.5 1518.7 492.1 1484.5 466.8C1404.3 407.5 1311.4 364.7 1211.1 356.4C1122.5 349 1038.8 372.7 952.1 385.6C911.3 391.7 869.3 393.7 829.2 382.7C781.5 369.6 741.7 339 709 302.7C675.4 265.5 626 210.9 569.2 227.7C522.1 241.6 489.9 292.1 461.9 329C418 387 373.1 445.5 312.8 487.5C274.4 514.3 231.1 533 185.2 542.8C156.5 549 127.1 551.3 98.0999 555.4C69.8 559.4 41.6 563.8 13.5 569C-95.2 589 -203.4 619.4 -301.1 672C-325.3 685.1 -348.8 699.5 -371.4 715.2C-373 716.3 -371.5 718.9 -369.9 717.8C-276.4 652.8 -169 612.8 -59.1 587C-4.80002 574.3 50.2 564.8 105.4 557.2C160 549.7 213 543.4 263.4 519.6C329.7 488.3 381.8 436 427 379.4C447.4 353.9 466.4 327.3 486.7 301.7C502.9 281.3 520 260.5 541.3 245.1C559.3 232.1 580.4 224.6 602.7 228.4C633.1 233.7 659 255.2 680.3 276C697.4 292.6 712.2 311.4 729.7 327.6C746 342.7 763.8 356.3 783.4 366.9C817.1 385.2 854.7 393.4 892.9 393.3C978.2 393.1 1060.5 362.5 1145.6 358.1C1244.3 353 1339.4 379.8 1424.1 430C1465.5 454.5 1502.4 484.6 1540.7 513.6C1557.4 526.2 1574.4 539 1592.6 549.3C1616.2 562.6 1640.6 573.8 1663.6 588.4C1715.2 621.1 1767.5 651.7 1822.4 678.6C1875.2 704.4 1929.2 727.5 1983.8 749.2C2011.5 760.2 2039.3 770.9 2067.1 781.5C2069 782.4 2069.8 779.5 2068 778.8Z" fill="#3F4575"/>
<path d="M2086.1 810.5C1969.5 762.9 1853 713.6 1745 648.5C1719 632.8 1693.9 615.7 1668.4 599.3C1646.4 585.1 1622.5 574.6 1600.4 560.9C1563.2 538 1530.6 508.2 1496.3 481.4C1417.9 420 1326.1 373.7 1225.9 364.7C1136.1 356.6 1052 382.5 964.8 398.4C925 405.7 883.8 409.6 844 400.2C796.2 389 756.2 359.3 723.7 323.3C690.2 286.2 642.1 223.1 583.6 238.9C562.8 244.5 545.7 259.3 531.3 274.7C512.3 295 496.3 317.9 480.3 340.5C438.5 399.6 396.2 459.5 338.1 504C301.5 532 259.8 552.5 215 563.7C184.4 571.4 152.8 573.8 121.6 577.8C94.5 581.3 67.5 585.3 40.6 589.9C-71.2 608.9 -182.5 638.6 -283.1 692.1C-308 705.3 -332.1 720.1 -355.3 736.2C-356.9 737.3 -355.4 739.9 -353.8 738.8C-258.2 672.4 -147.6 632.6 -34.6 607.6C22.4 595 80.2 585.9 138.1 578.8C190.2 572.4 240.2 564.1 287.5 539.8C353 506.1 403.2 451.4 446.5 393C465.5 367.3 483.4 340.7 502.4 315C518.1 293.7 534.9 271.7 556.4 256C574.2 243 595.1 236.3 617 241.5C646.8 248.5 671.6 271.2 692.3 292.5C709.8 310.7 725.2 330.7 743.8 347.8C759.7 362.4 777.1 375.4 796.3 385.4C830.4 403.3 868.2 410 906.4 408.4C946.8 406.7 986.4 397.3 1025.6 388.5C1070.8 378.4 1116.2 368.8 1162.6 366.4C1262.6 361.2 1357.8 392.1 1441.5 445.9C1481.9 471.8 1517.8 503.2 1555.7 532.5C1572 545.1 1588.5 557.9 1606.6 567.9C1630.9 581.2 1654.9 593.8 1678 609.1C1782 677.7 1892.1 732.4 2006.8 780.9C2032.9 791.9 2059.1 802.7 2085.4 813.4C2087 814.1 2087.8 811.2 2086.1 810.5Z" fill="#3F4575"/>
<path d="M2104.5 842.4C1987.6 791.5 1870.5 739.7 1762 672.4C1735.2 655.8 1709.3 637.7 1683.2 620.1C1660.2 604.6 1635.3 592.8 1612 578.2C1573.9 554.3 1540.7 523 1506 494.6C1428 430.9 1336.7 381.2 1234.8 372.6C1144.2 365 1060.1 393.7 972.9 412.1C932.7 420.6 890.8 425.6 850.3 415.9C803 404.6 764 374.1 732.5 338.1C700.7 301.7 652.5 234.6 594.7 251.5C574.9 257.3 558.9 272.1 545.5 287.2C526.6 308.6 511.1 332.7 495.4 356.5C455.7 416.8 415.3 477.7 358.8 523.8C324.2 552 284.4 573.3 241.4 585.5C211.5 593.9 180.9 596.7 150.2 600.2C122.4 603.5 94.6 607.2 67 611.5C-47.8 629.5 -162.4 658.5 -265.8 712.6C-291.4 726 -316.2 741 -339.9 757.5C-341.5 758.6 -340 761.2 -338.4 760.1C-241.5 693 -129.2 653.7 -14.5 629.4C44 617 103.3 608.4 162.7 601.7C213.9 595.9 262.6 586.3 308.3 561.4C372.6 526.4 421.1 470.5 462.3 411.2C480.8 384.7 497.9 357.3 516.2 330.6C530.8 309.2 546.3 287.2 566.4 270.6C583 256.9 603.1 248.7 624.7 253.3C653.8 259.4 678 282 697.8 302.7C730.8 337.3 758 375.5 800.7 399.5C834.1 418.3 871.8 425.7 909.9 423.9C950 422 989.3 411.7 1028 402C1073.3 390.6 1118.8 379.3 1165.5 375.6C1265.4 367.6 1360.2 397.7 1443.5 452.2C1486.2 480.2 1523.8 514.2 1563.4 546C1579.5 559 1595.9 572 1613.7 582.7C1637.6 597.1 1662.2 609.4 1685.4 625.1C1737.7 660.6 1790.6 694.4 1846.4 724.3C1902 754.1 1959.1 781 2016.7 806.9C2045.4 819.8 2074.2 832.4 2103.1 844.9C2104.7 845.7 2106.2 843.1 2104.5 842.4Z" fill="#3F4575"/>
<path d="M2122.5 874.1C1982.1 809.3 1842 743.4 1715.5 653.5C1699.8 642.4 1684.2 631.2 1668 620.9C1654.6 612.4 1640.2 605.7 1626.7 597.4C1603.4 583.2 1582.4 565.1 1561.7 547.6C1518 510.6 1475.7 472.5 1426.5 442.7C1346.1 394 1255.7 370.9 1162 382.6C1089.7 391.6 1022 419.6 950.5 432.1C918.4 437.7 885.2 439.2 853.5 430.8C816.2 421 784.2 398.5 757.6 371.1C729.8 342.5 708.2 308.5 676.3 283.8C659.5 270.8 638.9 259.4 616.9 261.6C572.4 266 543.6 318.7 522.7 352.3C486 411 451.5 471.5 402.6 521.3C375.4 549 344.2 572.9 309.3 590C265.1 611.7 219.1 618.3 170.7 623.5C31.7 638.5 -109.1 664.3 -235.5 726.5C-266.4 741.7 -296.1 759.1 -324.4 778.7C-326 779.8 -324.5 782.4 -322.9 781.3C-204.8 699.8 -64.6 660.4 75.7 638.8C112.1 633.2 148.6 628.7 185.2 625C208.5 622.6 231.5 619.9 254.2 613.8C292 603.7 327.6 586.4 359.2 563.2C416.2 521.3 457.6 463.1 494.6 403.8C510.7 377.9 526 351.5 543.2 326.3C556.4 307.1 571.1 286.7 591.2 274.1C641.6 242.3 692.3 298.3 721.8 333.8C748.4 365.8 774.8 397 811.8 417.4C839.4 432.6 870.1 439.9 901.5 439.9C969.9 439.9 1035.6 412.4 1101.3 397C1186.5 377 1272.2 377.2 1354.4 410C1411.8 432.9 1463.7 468 1510.6 507.8C1548.5 539.9 1585 577.2 1628.3 602.1C1659.2 619.9 1688.6 638.2 1717.7 658.9C1749 681.1 1781.1 702.1 1814 721.8C1880.1 761.3 1948.9 796 2018.4 829.1C2052.5 845.3 2086.8 861.2 2121.1 877C2122.8 877.5 2124.3 874.9 2122.5 874.1Z" fill="#3F4575"/>
</svg>
