<svg width="108" height="69" viewBox="0 0 108 69" fill="none" xmlns="http://www.w3.org/2000/svg">
<path d="M15.6095 44.1965V26.3471H10.0118V44.1965H0.813965V0.74514H10.0118V17.5633H15.6095V0.74514H24.8074V44.1965H15.6095Z" fill="#FF54C9"/>
<path d="M45.3303 44.1965L44.5886 34.1616H37.0336L36.3407 44.1965H27.3214L31.948 0.74514H50.2437L54.5855 44.1965H45.3303ZM42.7036 9.82145H38.8612L37.4331 25.3756H44.1891L42.7036 9.82145Z" fill="#FF54C9"/>
<path d="M79.0953 27.5428C79.2072 28.9192 79.2639 30.2202 79.2653 31.4457C79.2844 33.4513 79.1601 35.4556 78.8934 37.4432C78.6469 39.1513 78.1234 40.5576 77.3229 41.6622C76.5224 42.7668 75.389 43.5895 73.9226 44.1304C72.4562 44.6656 70.523 44.9332 68.1229 44.9332C65.2667 44.9332 63.0862 44.6748 61.5816 44.1581C60.1512 43.7044 58.953 42.7088 58.2408 41.3825C57.8267 40.6992 57.5003 39.9661 57.2696 39.2004C56.949 38.094 56.7292 36.9606 56.6129 35.8142C56.4401 34.3993 56.3161 32.6008 56.241 30.4188C56.1659 28.2367 56.1277 25.4611 56.1263 22.0919C56.1263 18.727 56.1645 15.9912 56.241 13.8846C56.3175 11.7779 56.4415 10.0563 56.6129 8.71974C56.7255 7.64832 56.9455 6.59106 57.2696 5.56407C57.5225 4.82535 57.8478 4.11371 58.2408 3.43964C58.9777 2.16178 60.1583 1.20226 61.5561 0.74515C63.0041 0.248383 65.0988 0 67.8403 0C70.2772 0 72.2387 0.229879 73.7249 0.689637C75.2112 1.1494 76.351 1.89526 77.1444 2.92722C77.9434 3.96061 78.4762 5.29006 78.7425 6.91559C79.0348 8.86651 79.1713 10.8378 79.1506 12.8106C79.1506 13.3465 79.1506 13.9379 79.1229 14.5891C79.0953 15.2403 79.074 15.9278 79.0379 16.6559H70.6392C70.6392 15.5072 70.6293 14.5507 70.6094 13.7863C70.5903 13.0198 70.5627 12.39 70.5244 11.8904C70.4991 11.4958 70.4516 11.1031 70.382 10.7139C70.3246 10.4278 70.2779 10.1887 70.2396 9.99653C70.0866 9.2706 69.2868 8.90763 67.8403 8.90763C67.1149 8.90763 66.5914 8.99375 66.2698 9.16598C66.1088 9.25112 65.9671 9.36889 65.8537 9.51185C65.7403 9.65481 65.6576 9.81985 65.611 9.99653C65.488 10.3421 65.4025 10.7001 65.3559 11.0641C65.2993 11.4655 65.2419 12.0775 65.1838 12.9003C65.1257 13.723 65.0875 14.8617 65.069 16.3164C65.0435 17.7612 65.0343 19.6529 65.0414 21.9915C65.0414 24.4028 65.0506 26.335 65.069 27.7883C65.0875 29.2416 65.1257 30.3896 65.1838 31.2322C65.2405 32.0735 65.2979 32.7047 65.3559 33.1261C65.4005 33.4974 65.4861 33.8626 65.611 34.215C65.659 34.3925 65.7465 34.5568 65.8669 34.6955C65.9873 34.8342 66.1374 34.9436 66.3059 35.0156C66.6481 35.1694 67.258 35.2441 68.1336 35.2441C69.2769 35.2441 69.9626 34.9188 70.1908 34.2683C70.344 33.8792 70.4586 33.4759 70.5329 33.0641C70.6149 32.5985 70.6724 32.1288 70.7051 31.6571C70.7433 31.1404 70.7709 30.549 70.7901 29.8786C70.8092 29.2082 70.8198 28.4353 70.8198 27.5535L79.0953 27.5428Z" fill="#FF54C9"/>
<path d="M97.7183 44.1965L92.2906 24.6817H91.7189C91.7972 25.204 91.8356 25.7315 91.8337 26.2596V44.1944H82.6359V0.74514H91.8337V16.5876C91.8337 17.0466 91.8231 17.4587 91.8039 17.8217C91.7848 18.1846 91.7572 18.5583 91.7189 18.9405H92.2906L98.0605 0.74514H107.488V1.03338L100.917 20.4329L108 43.919V44.1965H97.7183Z" fill="#FF54C9"/>
<path d="M3.4003 68.6797V61.8624L0 50.1065V49.9827H3.9826C4.24471 51.1513 4.45723 52.0857 4.62016 52.7861C4.78309 53.4864 4.90635 54.0458 4.98994 54.4642C5.0792 54.8913 5.14933 55.203 5.20246 55.4165C5.25559 55.63 5.29172 55.8435 5.32572 56.0335H5.57012C5.60412 55.835 5.6445 55.63 5.69338 55.4165C5.74226 55.203 5.81239 54.8849 5.9059 54.4642C5.99941 54.0436 6.11842 53.4864 6.28631 52.7861C6.4542 52.0857 6.67097 51.1506 6.94937 49.9827H10.7917V50.1065L7.54655 61.8133V68.6797H3.4003Z" fill="#FF54C9"/>
<path d="M32.8958 67.4691C32.7487 67.7451 32.5528 67.9918 32.3178 68.1972C32.0724 68.4011 31.7933 68.5601 31.4932 68.6669C31.1205 68.8005 30.733 68.8879 30.3392 68.9274C29.8245 68.9797 29.3073 69.0039 28.7899 69C27.5935 69 13.8031 68.889 13.1889 68.6669C12.5873 68.4557 12.0842 68.0293 11.7757 67.4691C11.6032 67.1755 11.4608 66.865 11.3506 66.5425C11.213 66.0957 11.1183 65.6367 11.068 65.1718C10.9957 64.5953 10.9426 63.8437 10.9086 62.9128C10.8746 61.9819 10.8597 60.7777 10.8597 59.3195C10.8597 57.8612 10.8767 56.6591 10.9086 55.7368C10.9405 54.8144 10.9957 54.065 11.068 53.4885C11.1177 53.0277 11.2123 52.5728 11.3506 52.1306C11.4653 51.8065 11.6075 51.4929 11.7757 51.1933C11.9302 50.9255 12.1252 50.6835 12.3537 50.4759C12.5957 50.2657 12.8746 50.1028 13.1762 49.9955C13.5527 49.8601 13.9447 49.7726 14.3429 49.735C14.7934 49.6859 28.197 49.6603 28.7942 49.6603C29.9744 49.6603 30.8719 49.7756 31.4868 50.0062C32.0823 50.2223 32.5828 50.6427 32.9001 51.1933C33.0674 51.4933 33.2096 51.8068 33.3251 52.1306C33.4624 52.5731 33.557 53.0278 33.6077 53.4885C33.68 54.0579 33.7331 54.8073 33.7671 55.7368C33.8011 56.6662 33.8174 57.8605 33.816 59.3195C33.816 60.7841 33.7997 61.9819 33.7671 62.9128C33.7331 63.8437 33.68 64.5953 33.6077 65.1718C33.5563 65.6365 33.4617 66.0955 33.3251 66.5425C33.2127 66.8648 33.0689 67.1752 32.8958 67.4691ZM29.7526 64.3818C29.7845 64.2665 29.8185 64.1192 29.8504 63.9377C29.8923 63.6677 29.9171 63.3952 29.9248 63.1221C29.9418 62.7612 29.9524 62.268 29.9609 61.6531C29.9694 61.0382 29.9737 60.2247 29.9737 59.2191C29.9737 58.1814 29.9694 57.3502 29.9609 56.7253C29.9609 56.0997 29.9418 55.6023 29.9248 55.2307C29.9174 54.9533 29.8926 54.6766 29.8504 54.4023C29.8185 54.223 29.7845 54.0735 29.7526 53.9582C29.6987 53.8078 29.5942 53.6809 29.4572 53.5995C29.2478 53.5114 29.0208 53.4734 28.7942 53.4885C28.4818 53.4885 15.3736 53.5269 15.2334 53.5995C15.1647 53.6372 15.1042 53.6883 15.0557 53.75C15.0071 53.8116 14.9714 53.8824 14.9507 53.9582C14.8954 54.101 14.8582 54.2502 14.8402 54.4023C14.8168 54.5838 14.7913 54.8592 14.7679 55.2307C14.7446 55.6023 14.7254 56.0997 14.7169 56.7253C14.7084 57.3509 14.7169 58.1814 14.7169 59.2191C14.7169 60.224 14.7169 61.0354 14.7169 61.6531C14.7169 62.2702 14.7424 62.7612 14.7679 63.1221C14.7934 63.4829 14.8168 63.7626 14.8402 63.9377C14.8579 64.0899 14.8951 64.2391 14.9507 64.3818C14.9703 64.4564 15.0058 64.526 15.0545 64.5856C15.1033 64.6453 15.1643 64.6938 15.2334 64.7277C15.3736 64.7939 28.4818 64.8259 28.7942 64.8259C29.0196 64.8405 29.2456 64.807 29.4572 64.7277C29.5955 64.6538 29.701 64.5303 29.7526 64.3818Z" fill="#FF54C9"/>
<path d="M41.2053 49.9827H45.0306V62.9256C45.0158 63.6985 44.9817 64.3412 44.9329 64.8472C44.8955 65.2774 44.8338 65.7051 44.748 66.1283C44.6917 66.4211 44.6055 66.7073 44.4908 66.9823C44.3917 67.2088 44.2767 67.4278 44.1465 67.6378C43.9936 67.8887 43.7979 68.1105 43.5685 68.2933C43.3212 68.4827 43.0429 68.6273 42.7461 68.7203C42.3696 68.8337 41.9819 68.9053 41.5899 68.9338C41.1479 68.9765 40.6315 68.9957 40.0407 68.9957C38.8449 68.9957 37.9353 68.9011 37.3119 68.7118C36.7246 68.5525 36.2222 68.1696 35.9114 67.6442C35.7797 67.4307 35.6564 67.2172 35.5417 66.9887C35.4098 66.7169 35.3106 66.4302 35.2463 66.1347C35.1542 65.7127 35.0924 65.2845 35.0614 64.8536C35.0217 64.3441 35.0019 63.7035 35.0019 62.932V49.9827H38.959V62.9256C38.959 63.3697 38.9717 63.7156 38.9951 63.9612C39.0057 64.1603 39.0609 64.3544 39.1566 64.5291C39.1933 64.5925 39.243 64.6473 39.3023 64.69C39.3617 64.7327 39.4293 64.7623 39.5009 64.7768C39.6948 64.8145 39.8921 64.831 40.0896 64.8259C40.2835 64.8314 40.4774 64.8149 40.6676 64.7768C40.7368 64.7605 40.802 64.7301 40.859 64.6875C40.916 64.6449 40.9637 64.591 40.9991 64.5291C41.095 64.3546 41.1496 64.1603 41.1585 63.9612C41.184 63.7156 41.1968 63.3697 41.1968 62.9256L41.2053 49.9827Z" fill="#FF54C9"/>
<path d="M52.6367 68.6797C52.5878 68.5303 52.5411 68.3701 52.5007 68.1972C52.4603 68.0243 52.4157 67.7702 52.3668 67.4072C52.3179 67.0442 52.252 66.5638 52.1691 65.9383C52.0863 65.3127 51.9885 64.4565 51.8737 63.3761C51.8256 62.9491 51.7767 62.6032 51.7271 62.3385C51.6942 62.1301 51.6364 61.9266 51.555 61.7321C51.5083 61.6147 51.4207 61.5183 51.3084 61.461C51.2073 61.4194 51.099 61.3983 50.9897 61.399H50.3989V68.6861H46.5416V49.9827H52.1713C52.8707 49.9628 53.5686 50.0587 54.237 50.2666C54.7431 50.4317 55.1911 50.7401 55.5269 51.1548C55.8702 51.6121 56.0977 52.1462 56.19 52.7113C56.324 53.4738 56.3859 54.2473 56.3749 55.0215C56.3849 55.7843 56.3523 56.547 56.2771 57.3061C56.238 57.7509 56.1342 58.1875 55.969 58.6021C55.8609 58.8747 55.6879 59.1166 55.4653 59.3066C55.248 59.4767 55.0178 59.6295 54.7768 59.7636V59.9109C54.8766 59.9942 54.9787 60.0838 55.0849 60.182C55.215 60.3237 55.3116 60.493 55.3676 60.6774C55.5416 61.113 55.6774 61.5631 55.7735 62.0225C55.9152 62.6246 56.0505 63.4687 56.1794 64.5547C56.2771 65.312 56.348 65.9212 56.3919 66.3824C56.4408 66.8435 56.4854 67.2151 56.5258 67.4948C56.5662 67.7745 56.6002 67.988 56.6257 68.1353C56.648 68.281 56.685 68.4241 56.7362 68.5623V68.6861L52.6367 68.6797ZM51.4806 57.9103C51.6389 57.9212 51.7968 57.8832 51.9331 57.8016C52.0694 57.72 52.1777 57.5985 52.2435 57.4534C52.3852 57.1502 52.4561 56.5616 52.4561 55.6877C52.4561 54.9475 52.3696 54.4536 52.1968 54.2059C52.1021 54.0792 51.977 53.9787 51.8332 53.9137C51.6894 53.8487 51.5315 53.8214 51.3743 53.8344H50.3904V57.9103H51.4806Z" fill="#FF54C9"/>
<path d="M62.7654 68.6797V49.9827H66.6247V64.5291H70.6073V68.6797H62.7654Z" fill="#FF54C9"/>
<path d="M71.8123 68.6797V49.9827H75.7694V68.6797H71.8123Z" fill="#FF54C9"/>
<path d="M77.4908 68.6797V49.9827H85.6026V53.9347H81.3522V57.6626H85.5325V61.4674H81.3501V68.6797H77.4908Z" fill="#FF54C9"/>
<path d="M86.882 68.6797V49.9827H108V53.9347H90.7456V57.2207H107.932V60.9998H90.7456V64.5312H107.981V68.6819L86.882 68.6797Z" fill="#FF54C9"/>
</svg>
